<?xml version="1.0" encoding="us-ascii" standalone="no"?><svg xmlns="http://www.w3.org/2000/svg" xmlns:xlink="http://www.w3.org/1999/xlink" contentStyleType="text/css" height="485px" preserveAspectRatio="none" style="width:554px;height:485px;background:#FFFFFF;" version="1.1" viewBox="0 0 554 485" width="554px" zoomAndPan="magnify"><defs/><g><text fill="#000000" font-family="sans-serif" font-size="14" font-weight="bold" lengthAdjust="spacing" textLength="183" x="178.5" y="22.9951">DLA Program Structure</text><!--cluster Main Module--><g id="cluster_Main Module"><path d="M75.5,43.2969 L174.5,43.2969 A3.75,3.75 0 0 1 177,45.7969 L184,65.5938 L321.5,65.5938 A2.5,2.5 0 0 1 324,68.0938 L324,138.0969 A2.5,2.5 0 0 1 321.5,140.5969 L75.5,140.5969 A2.5,2.5 0 0 1 73,138.0969 L73,45.7969 A2.5,2.5 0 0 1 75.5,43.2969 " fill="none" style="stroke:#000000;stroke-width:1.5;"/><line style="stroke:#000000;stroke-width:1.5;" x1="73" x2="184" y1="65.5938" y2="65.5938"/><text fill="#000000" font-family="sans-serif" font-size="14" font-weight="bold" lengthAdjust="spacing" textLength="98" x="77" y="58.292">Main Module</text></g><!--cluster Particle Module--><g id="cluster_Particle Module"><path d="M8.5,204.5969 L130.5,204.5969 A3.75,3.75 0 0 1 133,207.0969 L140,226.8938 L338.5,226.8938 A2.5,2.5 0 0 1 341,229.3938 L341,299.3869 A2.5,2.5 0 0 1 338.5,301.8869 L8.5,301.8869 A2.5,2.5 0 0 1 6,299.3869 L6,207.0969 A2.5,2.5 0 0 1 8.5,204.5969 " fill="none" style="stroke:#000000;stroke-width:1.5;"/><line style="stroke:#000000;stroke-width:1.5;" x1="6" x2="140" y1="226.8938" y2="226.8938"/><text fill="#000000" font-family="sans-serif" font-size="14" font-weight="bold" lengthAdjust="spacing" textLength="121" x="10" y="219.592">Particle Module</text></g><!--cluster Helpers Module--><g id="cluster_Helpers Module"><path d="M87.5,380.8869 L211.5,380.8869 A3.75,3.75 0 0 1 214,383.3869 L221,403.1838 L244.5,403.1838 A2.5,2.5 0 0 1 247,405.6838 L247,475.6869 A2.5,2.5 0 0 1 244.5,478.1869 L87.5,478.1869 A2.5,2.5 0 0 1 85,475.6869 L85,383.3869 A2.5,2.5 0 0 1 87.5,380.8869 " fill="none" style="stroke:#000000;stroke-width:1.5;"/><line style="stroke:#000000;stroke-width:1.5;" x1="85" x2="221" y1="403.1838" y2="403.1838"/><text fill="#000000" font-family="sans-serif" font-size="14" font-weight="bold" lengthAdjust="spacing" textLength="123" x="89" y="395.882">Helpers Module</text></g><!--cluster UI Module--><g id="cluster_UI Module"><path d="M375.5,204.5969 L453.5,204.5969 A3.75,3.75 0 0 1 456,207.0969 L463,226.8938 L544.5,226.8938 A2.5,2.5 0 0 1 547,229.3938 L547,475.6869 A2.5,2.5 0 0 1 544.5,478.1869 L375.5,478.1869 A2.5,2.5 0 0 1 373,475.6869 L373,207.0969 A2.5,2.5 0 0 1 375.5,204.5969 " fill="none" style="stroke:#000000;stroke-width:1.5;"/><line style="stroke:#000000;stroke-width:1.5;" x1="373" x2="463" y1="226.8938" y2="226.8938"/><text fill="#000000" font-family="sans-serif" font-size="14" font-weight="bold" lengthAdjust="spacing" textLength="77" x="377" y="219.592">UI Module</text></g><!--entity main_loop--><g id="elem_main_loop"><rect fill="#F1F1F1" height="46.2969" rx="2.5" ry="2.5" style="stroke:#181818;stroke-width:0.5;" width="110" x="198" y="78.2969"/><rect fill="#F1F1F1" height="10" style="stroke:#181818;stroke-width:0.5;" width="15" x="288" y="83.2969"/><rect fill="#F1F1F1" height="2" style="stroke:#181818;stroke-width:0.5;" width="4" x="286" y="85.2969"/><rect fill="#F1F1F1" height="2" style="stroke:#181818;stroke-width:0.5;" width="4" x="286" y="89.2969"/><text fill="#000000" font-family="sans-serif" font-size="14" lengthAdjust="spacing" textLength="70" x="213" y="111.292">main_loop</text></g><!--entity main--><g id="elem_main"><rect fill="#F1F1F1" height="46.2969" rx="2.5" ry="2.5" style="stroke:#181818;stroke-width:0.5;" width="73" x="89.5" y="78.2969"/><rect fill="#F1F1F1" height="10" style="stroke:#181818;stroke-width:0.5;" width="15" x="142.5" y="83.2969"/><rect fill="#F1F1F1" height="2" style="stroke:#181818;stroke-width:0.5;" width="4" x="140.5" y="85.2969"/><rect fill="#F1F1F1" height="2" style="stroke:#181818;stroke-width:0.5;" width="4" x="140.5" y="89.2969"/><text fill="#000000" font-family="sans-serif" font-size="14" lengthAdjust="spacing" textLength="33" x="104.5" y="111.292">main</text></g><!--entity init_particles--><g id="elem_init_particles"><rect fill="#F1F1F1" height="46.2969" rx="2.5" ry="2.5" style="stroke:#181818;stroke-width:0.5;" width="125" x="21.5" y="239.5969"/><rect fill="#F1F1F1" height="10" style="stroke:#181818;stroke-width:0.5;" width="15" x="126.5" y="244.5969"/><rect fill="#F1F1F1" height="2" style="stroke:#181818;stroke-width:0.5;" width="4" x="124.5" y="246.5969"/><rect fill="#F1F1F1" height="2" style="stroke:#181818;stroke-width:0.5;" width="4" x="124.5" y="250.5969"/><text fill="#000000" font-family="sans-serif" font-size="14" lengthAdjust="spacing" textLength="85" x="36.5" y="272.592">init_particles</text></g><!--entity random_wiggle--><g id="elem_random_wiggle"><rect fill="#F1F1F1" height="46.2969" rx="2.5" ry="2.5" style="stroke:#181818;stroke-width:0.5;" width="144" x="181" y="239.5969"/><rect fill="#F1F1F1" height="10" style="stroke:#181818;stroke-width:0.5;" width="15" x="305" y="244.5969"/><rect fill="#F1F1F1" height="2" style="stroke:#181818;stroke-width:0.5;" width="4" x="303" y="246.5969"/><rect fill="#F1F1F1" height="2" style="stroke:#181818;stroke-width:0.5;" width="4" x="303" y="250.5969"/><text fill="#000000" font-family="sans-serif" font-size="14" lengthAdjust="spacing" textLength="104" x="196" y="272.592">random_wiggle</text></g><!--entity random_num--><g id="elem_random_num"><rect fill="#F1F1F1" height="46.2969" rx="2.5" ry="2.5" style="stroke:#181818;stroke-width:0.5;" width="131" x="100.5" y="415.8869"/><rect fill="#F1F1F1" height="10" style="stroke:#181818;stroke-width:0.5;" width="15" x="211.5" y="420.8869"/><rect fill="#F1F1F1" height="2" style="stroke:#181818;stroke-width:0.5;" width="4" x="209.5" y="422.8869"/><rect fill="#F1F1F1" height="2" style="stroke:#181818;stroke-width:0.5;" width="4" x="209.5" y="426.8869"/><text fill="#000000" font-family="sans-serif" font-size="14" lengthAdjust="spacing" textLength="91" x="115.5" y="448.882">random_num</text></g><!--entity refresh_display--><g id="elem_refresh_display"><rect fill="#F1F1F1" height="46.2969" rx="2.5" ry="2.5" style="stroke:#181818;stroke-width:0.5;" width="143" x="388.5" y="239.5969"/><rect fill="#F1F1F1" height="10" style="stroke:#181818;stroke-width:0.5;" width="15" x="511.5" y="244.5969"/><rect fill="#F1F1F1" height="2" style="stroke:#181818;stroke-width:0.5;" width="4" x="509.5" y="246.5969"/><rect fill="#F1F1F1" height="2" style="stroke:#181818;stroke-width:0.5;" width="4" x="509.5" y="250.5969"/><text fill="#000000" font-family="sans-serif" font-size="14" lengthAdjust="spacing" textLength="103" x="403.5" y="272.592">refresh_display</text></g><!--entity draw_particle--><g id="elem_draw_particle"><rect fill="#F1F1F1" height="46.2969" rx="2.5" ry="2.5" style="stroke:#181818;stroke-width:0.5;" width="130" x="392" y="415.8869"/><rect fill="#F1F1F1" height="10" style="stroke:#181818;stroke-width:0.5;" width="15" x="502" y="420.8869"/><rect fill="#F1F1F1" height="2" style="stroke:#181818;stroke-width:0.5;" width="4" x="500" y="422.8869"/><rect fill="#F1F1F1" height="2" style="stroke:#181818;stroke-width:0.5;" width="4" x="500" y="426.8869"/><text fill="#000000" font-family="sans-serif" font-size="14" lengthAdjust="spacing" textLength="90" x="407" y="448.882">draw_particle</text></g><!--link main to init_particles--><g id="link_main_init_particles"><path d="M120.07,124.9269 C112.09,155.2069 99.4993,202.965 91.4993,233.315 " fill="none" id="main-to-init_particles" style="stroke:#181818;stroke-width:1.0;"/><polygon fill="#181818" points="89.97,239.1169,96.1319,231.4337,91.2444,234.282,88.3961,229.3946,89.97,239.1169" style="stroke:#181818;stroke-width:1.0;"/><text fill="#000000" font-family="sans-serif" font-size="13" lengthAdjust="spacing" textLength="69" x="113" y="169.6638">initialize all</text><text fill="#000000" font-family="sans-serif" font-size="13" lengthAdjust="spacing" textLength="54" x="122.5" y="184.7966">particles</text></g><!--link main_loop to random_wiggle--><g id="link_main_loop_random_wiggle"><path d="M253,124.9269 C253,155.2069 253,202.7669 253,233.1169 " fill="none" id="main_loop-to-random_wiggle" style="stroke:#181818;stroke-width:1.0;"/><polygon fill="#181818" points="253,239.1169,257,230.1169,253,234.1169,249,230.1169,253,239.1169" style="stroke:#181818;stroke-width:1.0;"/><text fill="#000000" font-family="sans-serif" font-size="13" lengthAdjust="spacing" textLength="63" x="254" y="169.6638">update all</text><text fill="#000000" font-family="sans-serif" font-size="13" lengthAdjust="spacing" textLength="54" x="260.5" y="184.7966">particles</text></g><!--link main_loop to refresh_display--><g id="link_main_loop_refresh_display"><path d="M283.68,124.9169 C296.78,134.5869 312.2,146.0669 326,156.5969 C362.79,184.6669 399.9821,213.9746 426.9821,235.4246 " fill="none" id="main_loop-to-refresh_display" style="stroke:#181818;stroke-width:1.0;"/><polygon fill="#181818" points="431.68,239.1569,427.1213,230.4266,427.7651,236.0467,422.145,236.6905,431.68,239.1569" style="stroke:#181818;stroke-width:1.0;"/><text fill="#000000" font-family="sans-serif" font-size="13" lengthAdjust="spacing" textLength="93" x="367" y="169.6638">update display</text><text fill="#000000" font-family="sans-serif" font-size="13" lengthAdjust="spacing" textLength="87" x="372" y="184.7966">once per loop</text></g><!--link init_particles to random_num--><g id="link_init_particles_random_num"><path d="M80.81,286.1669 C78.8,307.4469 78.44,339.8069 90,364.8869 C99.35,385.1769 112.3725,398.9891 128.3425,411.8191 " fill="none" id="init_particles-to-random_num" style="stroke:#181818;stroke-width:1.0;"/><polygon fill="#181818" points="133.02,415.5769,128.509,406.8218,129.1221,412.4454,123.4986,413.0585,133.02,415.5769" style="stroke:#181818;stroke-width:1.0;"/><text fill="#000000" font-family="sans-serif" font-size="13" lengthAdjust="spacing" textLength="129" x="102.5" y="338.4538">get random number</text><text fill="#000000" font-family="sans-serif" font-size="13" lengthAdjust="spacing" textLength="140" x="99" y="353.5866">to set/update position</text></g><!--link random_wiggle to random_num--><g id="link_random_wiggle_random_num"><path d="M255.44,286.2569 C256.76,307.5969 256.12,340.0069 244,364.8869 C234.08,385.2569 220.6283,399.1105 204.3083,411.9305 " fill="none" id="random_wiggle-to-random_num" style="stroke:#181818;stroke-width:1.0;"/><polygon fill="#181818" points="199.59,415.6369,209.1384,413.2228,203.5219,412.5482,204.1965,406.9317,199.59,415.6369" style="stroke:#181818;stroke-width:1.0;"/></g><!--link refresh_display to draw_particle--><g id="link_refresh_display_draw_particle"><path d="M459.61,286.1669 C459.04,319.5469 458.0739,375.9378 457.4939,409.4178 " fill="none" id="refresh_display-to-draw_particle" style="stroke:#181818;stroke-width:1.0;"/><polygon fill="#181818" points="457.39,415.4169,461.5453,406.4875,457.4766,410.4176,453.5465,406.3489,457.39,415.4169" style="stroke:#181818;stroke-width:1.0;"/><text fill="#000000" font-family="sans-serif" font-size="13" lengthAdjust="spacing" textLength="65" x="463.5" y="330.9538">draw each</text><text fill="#000000" font-family="sans-serif" font-size="13" lengthAdjust="spacing" textLength="67" x="464.5" y="346.0866">particle on</text><text fill="#000000" font-family="sans-serif" font-size="13" lengthAdjust="spacing" textLength="68" x="464" y="361.2194">the screen</text></g><!--SRC=[XLB1IiGm4BtdAuPUzhHuzo287XHSM11FTIan7Rl1D1CcAOlA_hkJMhfD4Jm4EZDvRzvxJRB98LJtJxUmP-fOz_2SU31fOAoKIjHXEYB3jm88sdpeJcxljFMmetPmM8qJWBgNNkE8mk5Ivy-pd2LshpbP8pjNUEjjQi8qZ1C9QzzItvnirpdyY-q1NK2EAx9DRSX7SYY2kfBA3_qlprcfcUNbiI2e6TyPux5fRGnEVsP0tR8-pVeE6Rw1COSxyXvDih9HPTEmtTv0wGQknuRLpduXQETUFSn3DISt8WlB0Xn2gzE_e5Bm1JOr14hU84XMa45P_FmZbWPMkXU293YXhK3UmzG2QRqX2pSaWeZfQbeQADfCLwdIJCcMDKZmo-rh6nbGv2uASWsepN4HXvYJIjufHCE8_WS0]--></g></svg>