<?xml version="1.0" encoding="us-ascii" standalone="no"?><svg xmlns="http://www.w3.org/2000/svg" xmlns:xlink="http://www.w3.org/1999/xlink" contentStyleType="text/css" height="644px" preserveAspectRatio="none" style="width:740px;height:644px;background:#FFFFFF;" version="1.1" viewBox="0 0 740 644" width="740px" zoomAndPan="magnify"><defs/><g><text fill="#000000" font-family="sans-serif" font-size="14" font-weight="bold" lengthAdjust="spacing" textLength="183" x="271.5" y="22.9951">DLA Program Structure</text><!--cluster Main Module--><g id="cluster_Main Module"><path d="M75.5,43.2969 L174.5,43.2969 A3.75,3.75 0 0 1 177,45.7969 L184,65.5938 L321.5,65.5938 A2.5,2.5 0 0 1 324,68.0938 L324,138.0969 A2.5,2.5 0 0 1 321.5,140.5969 L75.5,140.5969 A2.5,2.5 0 0 1 73,138.0969 L73,45.7969 A2.5,2.5 0 0 1 75.5,43.2969 " fill="none" style="stroke:#000000;stroke-width:1.5;"/><line style="stroke:#000000;stroke-width:1.5;" x1="73" x2="184" y1="65.5938" y2="65.5938"/><text fill="#000000" font-family="sans-serif" font-size="14" font-weight="bold" lengthAdjust="spacing" textLength="98" x="77" y="58.292">Main Module</text></g><!--cluster Particle Module--><g id="cluster_Particle Module"><path d="M8.5,204.5969 L130.5,204.5969 A3.75,3.75 0 0 1 133,207.0969 L140,226.8938 L338.5,226.8938 A2.5,2.5 0 0 1 341,229.3938 L341,634.9869 A2.5,2.5 0 0 1 338.5,637.4869 L8.5,637.4869 A2.5,2.5 0 0 1 6,634.9869 L6,207.0969 A2.5,2.5 0 0 1 8.5,204.5969 " fill="none" style="stroke:#000000;stroke-width:1.5;"/><line style="stroke:#000000;stroke-width:1.5;" x1="6" x2="140" y1="226.8938" y2="226.8938"/><text fill="#000000" font-family="sans-serif" font-size="14" font-weight="bold" lengthAdjust="spacing" textLength="121" x="10" y="219.592">Particle Module</text></g><!--cluster UI Module--><g id="cluster_UI Module"><path d="M561.5,386.8969 L639.5,386.8969 A3.75,3.75 0 0 1 642,389.3969 L649,409.1938 L730.5,409.1938 A2.5,2.5 0 0 1 733,411.6938 L733,634.9869 A2.5,2.5 0 0 1 730.5,637.4869 L561.5,637.4869 A2.5,2.5 0 0 1 559,634.9869 L559,389.3969 A2.5,2.5 0 0 1 561.5,386.8969 " fill="none" style="stroke:#000000;stroke-width:1.5;"/><line style="stroke:#000000;stroke-width:1.5;" x1="559" x2="649" y1="409.1938" y2="409.1938"/><text fill="#000000" font-family="sans-serif" font-size="14" font-weight="bold" lengthAdjust="spacing" textLength="77" x="563" y="401.892">UI Module</text></g><!--cluster Helpers Module--><g id="cluster_Helpers Module"><path d="M375.5,386.8969 L499.5,386.8969 A3.75,3.75 0 0 1 502,389.3969 L509,409.1938 L532.5,409.1938 A2.5,2.5 0 0 1 535,411.6938 L535,634.9869 A2.5,2.5 0 0 1 532.5,637.4869 L375.5,637.4869 A2.5,2.5 0 0 1 373,634.9869 L373,389.3969 A2.5,2.5 0 0 1 375.5,386.8969 " fill="none" style="stroke:#000000;stroke-width:1.5;"/><line style="stroke:#000000;stroke-width:1.5;" x1="373" x2="509" y1="409.1938" y2="409.1938"/><text fill="#000000" font-family="sans-serif" font-size="14" font-weight="bold" lengthAdjust="spacing" textLength="123" x="377" y="401.892">Helpers Module</text></g><!--entity main_loop--><g id="elem_main_loop"><rect fill="#F1F1F1" height="46.2969" rx="2.5" ry="2.5" style="stroke:#181818;stroke-width:0.5;" width="110" x="198" y="78.2969"/><rect fill="#F1F1F1" height="10" style="stroke:#181818;stroke-width:0.5;" width="15" x="288" y="83.2969"/><rect fill="#F1F1F1" height="2" style="stroke:#181818;stroke-width:0.5;" width="4" x="286" y="85.2969"/><rect fill="#F1F1F1" height="2" style="stroke:#181818;stroke-width:0.5;" width="4" x="286" y="89.2969"/><text fill="#000000" font-family="sans-serif" font-size="14" lengthAdjust="spacing" textLength="70" x="213" y="111.292">main_loop</text></g><!--entity main--><g id="elem_main"><rect fill="#F1F1F1" height="46.2969" rx="2.5" ry="2.5" style="stroke:#181818;stroke-width:0.5;" width="73" x="89.5" y="78.2969"/><rect fill="#F1F1F1" height="10" style="stroke:#181818;stroke-width:0.5;" width="15" x="142.5" y="83.2969"/><rect fill="#F1F1F1" height="2" style="stroke:#181818;stroke-width:0.5;" width="4" x="140.5" y="85.2969"/><rect fill="#F1F1F1" height="2" style="stroke:#181818;stroke-width:0.5;" width="4" x="140.5" y="89.2969"/><text fill="#000000" font-family="sans-serif" font-size="14" lengthAdjust="spacing" textLength="33" x="104.5" y="111.292">main</text></g><!--entity init_particles--><g id="elem_init_particles"><rect fill="#F1F1F1" height="46.2969" rx="2.5" ry="2.5" style="stroke:#181818;stroke-width:0.5;" width="125" x="21.5" y="239.5969"/><rect fill="#F1F1F1" height="10" style="stroke:#181818;stroke-width:0.5;" width="15" x="126.5" y="244.5969"/><rect fill="#F1F1F1" height="2" style="stroke:#181818;stroke-width:0.5;" width="4" x="124.5" y="246.5969"/><rect fill="#F1F1F1" height="2" style="stroke:#181818;stroke-width:0.5;" width="4" x="124.5" y="250.5969"/><text fill="#000000" font-family="sans-serif" font-size="14" lengthAdjust="spacing" textLength="85" x="36.5" y="272.592">init_particles</text></g><!--entity random_wiggle--><g id="elem_random_wiggle"><rect fill="#F1F1F1" height="46.2969" rx="2.5" ry="2.5" style="stroke:#181818;stroke-width:0.5;" width="144" x="181" y="239.5969"/><rect fill="#F1F1F1" height="10" style="stroke:#181818;stroke-width:0.5;" width="15" x="305" y="244.5969"/><rect fill="#F1F1F1" height="2" style="stroke:#181818;stroke-width:0.5;" width="4" x="303" y="246.5969"/><rect fill="#F1F1F1" height="2" style="stroke:#181818;stroke-width:0.5;" width="4" x="303" y="250.5969"/><text fill="#000000" font-family="sans-serif" font-size="14" lengthAdjust="spacing" textLength="104" x="196" y="272.592">random_wiggle</text></g><!--entity check_touching--><g id="elem_check_touching"><rect fill="#F1F1F1" height="46.2969" rx="2.5" ry="2.5" style="stroke:#181818;stroke-width:0.5;" width="150" x="160" y="421.8969"/><rect fill="#F1F1F1" height="10" style="stroke:#181818;stroke-width:0.5;" width="15" x="290" y="426.8969"/><rect fill="#F1F1F1" height="2" style="stroke:#181818;stroke-width:0.5;" width="4" x="288" y="428.8969"/><rect fill="#F1F1F1" height="2" style="stroke:#181818;stroke-width:0.5;" width="4" x="288" y="432.8969"/><text fill="#000000" font-family="sans-serif" font-size="14" lengthAdjust="spacing" textLength="110" x="175" y="454.892">check_touching</text></g><!--entity is_stuck--><g id="elem_is_stuck"><rect fill="#F1F1F1" height="46.2969" rx="2.5" ry="2.5" style="stroke:#181818;stroke-width:0.5;" width="96" x="179" y="575.1869"/><rect fill="#F1F1F1" height="10" style="stroke:#181818;stroke-width:0.5;" width="15" x="255" y="580.1869"/><rect fill="#F1F1F1" height="2" style="stroke:#181818;stroke-width:0.5;" width="4" x="253" y="582.1869"/><rect fill="#F1F1F1" height="2" style="stroke:#181818;stroke-width:0.5;" width="4" x="253" y="586.1869"/><text fill="#000000" font-family="sans-serif" font-size="14" lengthAdjust="spacing" textLength="56" x="194" y="608.182">is_stuck</text></g><!--entity refresh_display--><g id="elem_refresh_display"><rect fill="#F1F1F1" height="46.2969" rx="2.5" ry="2.5" style="stroke:#181818;stroke-width:0.5;" width="143" x="574.5" y="421.8969"/><rect fill="#F1F1F1" height="10" style="stroke:#181818;stroke-width:0.5;" width="15" x="697.5" y="426.8969"/><rect fill="#F1F1F1" height="2" style="stroke:#181818;stroke-width:0.5;" width="4" x="695.5" y="428.8969"/><rect fill="#F1F1F1" height="2" style="stroke:#181818;stroke-width:0.5;" width="4" x="695.5" y="432.8969"/><text fill="#000000" font-family="sans-serif" font-size="14" lengthAdjust="spacing" textLength="103" x="589.5" y="454.892">refresh_display</text></g><!--entity render_particle--><g id="elem_render_particle"><rect fill="#F1F1F1" height="46.2969" rx="2.5" ry="2.5" style="stroke:#181818;stroke-width:0.5;" width="143" x="574.5" y="575.1869"/><rect fill="#F1F1F1" height="10" style="stroke:#181818;stroke-width:0.5;" width="15" x="697.5" y="580.1869"/><rect fill="#F1F1F1" height="2" style="stroke:#181818;stroke-width:0.5;" width="4" x="695.5" y="582.1869"/><rect fill="#F1F1F1" height="2" style="stroke:#181818;stroke-width:0.5;" width="4" x="695.5" y="586.1869"/><text fill="#000000" font-family="sans-serif" font-size="14" lengthAdjust="spacing" textLength="103" x="589.5" y="608.182">render_particle</text></g><!--entity random_num--><g id="elem_random_num"><rect fill="#F1F1F1" height="46.2969" rx="2.5" ry="2.5" style="stroke:#181818;stroke-width:0.5;" width="131" x="388.5" y="421.8969"/><rect fill="#F1F1F1" height="10" style="stroke:#181818;stroke-width:0.5;" width="15" x="499.5" y="426.8969"/><rect fill="#F1F1F1" height="2" style="stroke:#181818;stroke-width:0.5;" width="4" x="497.5" y="428.8969"/><rect fill="#F1F1F1" height="2" style="stroke:#181818;stroke-width:0.5;" width="4" x="497.5" y="432.8969"/><text fill="#000000" font-family="sans-serif" font-size="14" lengthAdjust="spacing" textLength="91" x="403.5" y="454.892">random_num</text></g><!--entity write_string--><g id="elem_write_string"><rect fill="#F1F1F1" height="46.2969" rx="2.5" ry="2.5" style="stroke:#181818;stroke-width:0.5;" width="119" x="397.5" y="575.1869"/><rect fill="#F1F1F1" height="10" style="stroke:#181818;stroke-width:0.5;" width="15" x="496.5" y="580.1869"/><rect fill="#F1F1F1" height="2" style="stroke:#181818;stroke-width:0.5;" width="4" x="494.5" y="582.1869"/><rect fill="#F1F1F1" height="2" style="stroke:#181818;stroke-width:0.5;" width="4" x="494.5" y="586.1869"/><text fill="#000000" font-family="sans-serif" font-size="14" lengthAdjust="spacing" textLength="79" x="412.5" y="608.182">write_string</text></g><!--link main to init_particles--><g id="link_main_init_particles"><path d="M120.07,124.9369 C112.09,155.2069 99.4993,202.965 91.4993,233.315 " fill="none" id="main-to-init_particles" style="stroke:#181818;stroke-width:1.0;"/><polygon fill="#181818" points="89.97,239.1169,96.1319,231.4337,91.2444,234.282,88.3961,229.3946,89.97,239.1169" style="stroke:#181818;stroke-width:1.0;"/><text fill="#000000" font-family="sans-serif" font-size="13" lengthAdjust="spacing" textLength="51" x="115.5" y="169.6638">initialize</text><text fill="#000000" font-family="sans-serif" font-size="13" lengthAdjust="spacing" textLength="54" x="116" y="184.7966">particles</text></g><!--link main_loop to random_wiggle--><g id="link_main_loop_random_wiggle"><path d="M253,124.9369 C253,155.2069 253,202.7669 253,233.1169 " fill="none" id="main_loop-to-random_wiggle" style="stroke:#181818;stroke-width:1.0;"/><polygon fill="#181818" points="253,239.1169,257,230.1169,253,234.1169,249,230.1169,253,239.1169" style="stroke:#181818;stroke-width:1.0;"/><text fill="#000000" font-family="sans-serif" font-size="13" lengthAdjust="spacing" textLength="45" x="260.5" y="169.6638">update</text><text fill="#000000" font-family="sans-serif" font-size="13" lengthAdjust="spacing" textLength="54" x="258" y="184.7966">particles</text></g><!--link main_loop to refresh_display--><g id="link_main_loop_refresh_display"><path d="M282.05,125.0469 C294.2,134.6369 308.4,146.0169 321,156.5969 C435.52,252.7269 563.4193,368.551 617.0793,417.551 " fill="none" id="main_loop-to-refresh_display" style="stroke:#181818;stroke-width:1.0;"/><polygon fill="#181818" points="621.51,421.5969,617.5613,412.5743,617.8178,418.2253,612.1667,418.4818,621.51,421.5969" style="stroke:#181818;stroke-width:1.0;"/><text fill="#000000" font-family="sans-serif" font-size="13" lengthAdjust="spacing" textLength="45" x="472.5" y="259.8138">update</text><text fill="#000000" font-family="sans-serif" font-size="13" lengthAdjust="spacing" textLength="44" x="479" y="274.9466">display</text></g><!--link init_particles to random_num--><g id="link_init_particles_random_num"><path d="M146.74,281.7369 C152.56,283.2169 158.38,284.6269 164,285.8969 C239.7,302.9369 267.89,278.7169 336,315.8969 C382.59,341.3269 417.4582,387.1071 436.8482,416.5271 " fill="none" id="init_particles-to-random_num" style="stroke:#181818;stroke-width:1.0;"/><polygon fill="#181818" points="440.15,421.5369,438.5371,411.821,437.3985,417.3621,431.8574,416.2234,440.15,421.5369" style="stroke:#181818;stroke-width:1.0;"/></g><!--link random_wiggle to random_num--><g id="link_random_wiggle_random_num"><path d="M325.44,276.3369 C351.89,284.0169 380.34,296.3069 401,315.8969 C431.23,344.5469 443.6333,387.1114 449.2633,415.5114 " fill="none" id="random_wiggle-to-random_num" style="stroke:#181818;stroke-width:1.0;"/><polygon fill="#181818" points="450.43,421.3969,452.6035,411.7909,449.4577,416.4923,444.7563,413.3465,450.43,421.3969" style="stroke:#181818;stroke-width:1.0;"/><text fill="#000000" font-family="sans-serif" font-size="13" lengthAdjust="spacing" textLength="50" x="433" y="336.4638">position</text><text fill="#000000" font-family="sans-serif" font-size="13" lengthAdjust="spacing" textLength="29" x="445.5" y="351.5966">data</text></g><!--link random_wiggle to check_touching--><g id="link_random_wiggle_check_touching"><path d="M250.76,286.2169 C247.3,320.8569 241.2962,380.9566 237.8362,415.6066 " fill="none" id="random_wiggle-to-check_touching" style="stroke:#181818;stroke-width:1.0;"/><polygon fill="#181818" points="237.24,421.5769,242.1145,413.0189,237.7368,416.6016,234.154,412.224,237.24,421.5769" style="stroke:#181818;stroke-width:1.0;"/><text fill="#000000" font-family="sans-serif" font-size="13" lengthAdjust="spacing" textLength="37" x="269" y="328.9638">check</text><text fill="#000000" font-family="sans-serif" font-size="13" lengthAdjust="spacing" textLength="75" x="252" y="344.0966">neighboring</text><text fill="#000000" font-family="sans-serif" font-size="13" lengthAdjust="spacing" textLength="36" x="271.5" y="359.2294">coord</text></g><!--link check_touching to is_stuck--><g id="link_check_touching_is_stuck"><path d="M233.82,468.3669 C232.31,496.9669 230.0158,540.2852 228.5058,568.9352 " fill="none" id="check_touching-to-is_stuck" style="stroke:#181818;stroke-width:1.0;"/><polygon fill="#181818" points="228.19,574.9269,232.6581,566.1499,228.4532,569.9338,224.6692,565.7288,228.19,574.9269" style="stroke:#181818;stroke-width:1.0;"/><text fill="#000000" font-family="sans-serif" font-size="13" lengthAdjust="spacing" textLength="64" x="249" y="511.2538">search for</text><text fill="#000000" font-family="sans-serif" font-size="13" lengthAdjust="spacing" textLength="92" x="237" y="526.3866">stuck particles</text><text fill="#000000" font-family="sans-serif" font-size="13" lengthAdjust="spacing" textLength="60" x="253" y="541.5194">at coords</text></g><!--link refresh_display to render_particle--><g id="link_refresh_display_render_particle"><path d="M646,468.3669 C646,496.9669 646,540.2769 646,568.9269 " fill="none" id="refresh_display-to-render_particle" style="stroke:#181818;stroke-width:1.0;"/><polygon fill="#181818" points="646,574.9269,650,565.9269,646,569.9269,642,565.9269,646,574.9269" style="stroke:#181818;stroke-width:1.0;"/><text fill="#000000" font-family="sans-serif" font-size="13" lengthAdjust="spacing" textLength="75" x="647" y="511.2538">add particle</text><text fill="#000000" font-family="sans-serif" font-size="13" lengthAdjust="spacing" textLength="60" x="656.5" y="526.3866">to screen</text><text fill="#000000" font-family="sans-serif" font-size="13" lengthAdjust="spacing" textLength="37" x="668" y="541.5194">buffer</text></g><!--link refresh_display to write_string--><g id="link_refresh_display_write_string"><path d="M618.11,468.3669 C582.38,496.9669 525.4741,542.5273 489.6841,571.1773 " fill="none" id="refresh_display-to-write_string" style="stroke:#181818;stroke-width:1.0;"/><polygon fill="#181818" points="485,574.9269,494.5258,572.4252,488.9034,571.8022,489.5264,566.1798,485,574.9269" style="stroke:#181818;stroke-width:1.0;"/></g><!--link random_num to write_string--><!--SRC=[VL9DQyCW6BxdLxnusIb_O8V1s0uTh50OEtKXM7sJI1CDhqhPHl_xr3Pf36K73pxwVFZuEkLw1FRw_WmxCYtn0JuSUU4y8IkAaOiZRyE5BLSQjaRw7Xdy5W3x8I1rRynOJRkgE2yOEqvEYI2UiPHMhXwlHpPHYMjfXlgashR7X8WEnR5snejEwJP1ojRMUN5C7iwqw3ga93aRVhvbLb4P6qBRrLBPiUVVrOHgYJI7YEWvhANK1liHoQxqRbcr7we9Ef5o6CBHDUev9do0LDYBqHg5KqRR8ZO4PVa4UGNm22mYYlVg1xyqp2Uic2jElAodIFEZvEv_Ibv0HWAueYp6dNzh6NcLT14Y553aUVB3w3GQgw9Ey0gMdDqXv1yTIGa938sgxGucbXfsmXYI8UVgVchpEXYHR96JwA0n53WNT4uV4EukGZQzE8pBygthgYxrPPCIBRYKisQGT0Qi8CJuo8Dl6YHsLsav9D5y6h0imQszShzHKgAkoepv1m00]--></g></svg>