<?xml version="1.0" encoding="us-ascii" standalone="no"?><svg xmlns="http://www.w3.org/2000/svg" xmlns:xlink="http://www.w3.org/1999/xlink" contentStyleType="text/css" height="594px" preserveAspectRatio="none" style="width:554px;height:594px;background:#FFFFFF;" version="1.1" viewBox="0 0 554 594" width="554px" zoomAndPan="magnify"><defs/><g><text fill="#000000" font-family="sans-serif" font-size="14" font-weight="bold" lengthAdjust="spacing" textLength="183" x="178.5" y="22.9951">DLA Program Structure</text><!--cluster Main Module--><g id="cluster_Main Module"><path d="M75.5,43.2969 L174.5,43.2969 A3.75,3.75 0 0 1 177,45.7969 L184,65.5938 L321.5,65.5938 A2.5,2.5 0 0 1 324,68.0938 L324,138.0969 A2.5,2.5 0 0 1 321.5,140.5969 L75.5,140.5969 A2.5,2.5 0 0 1 73,138.0969 L73,45.7969 A2.5,2.5 0 0 1 75.5,43.2969 " fill="none" style="stroke:#000000;stroke-width:1.5;"/><line style="stroke:#000000;stroke-width:1.5;" x1="73" x2="184" y1="65.5938" y2="65.5938"/><text fill="#000000" font-family="sans-serif" font-size="14" font-weight="bold" lengthAdjust="spacing" textLength="98" x="77" y="58.292">Main Module</text></g><!--cluster Particle Module--><g id="cluster_Particle Module"><path d="M8.5,204.5969 L130.5,204.5969 A3.75,3.75 0 0 1 133,207.0969 L140,226.8938 L338.5,226.8938 A2.5,2.5 0 0 1 341,229.3938 L341,299.3969 A2.5,2.5 0 0 1 338.5,301.8969 L8.5,301.8969 A2.5,2.5 0 0 1 6,299.3969 L6,207.0969 A2.5,2.5 0 0 1 8.5,204.5969 " fill="none" style="stroke:#000000;stroke-width:1.5;"/><line style="stroke:#000000;stroke-width:1.5;" x1="6" x2="140" y1="226.8938" y2="226.8938"/><text fill="#000000" font-family="sans-serif" font-size="14" font-weight="bold" lengthAdjust="spacing" textLength="121" x="10" y="219.592">Particle Module</text></g><!--cluster Helpers Module--><g id="cluster_Helpers Module"><path d="M8.5,380.8969 L132.5,380.8969 A3.75,3.75 0 0 1 135,383.3969 L142,403.1938 L330.5,403.1938 A2.5,2.5 0 0 1 333,405.6938 L333,584.9869 A2.5,2.5 0 0 1 330.5,587.4869 L8.5,587.4869 A2.5,2.5 0 0 1 6,584.9869 L6,383.3969 A2.5,2.5 0 0 1 8.5,380.8969 " fill="none" style="stroke:#000000;stroke-width:1.5;"/><line style="stroke:#000000;stroke-width:1.5;" x1="6" x2="142" y1="403.1938" y2="403.1938"/><text fill="#000000" font-family="sans-serif" font-size="14" font-weight="bold" lengthAdjust="spacing" textLength="123" x="10" y="395.892">Helpers Module</text></g><!--cluster UI Module--><g id="cluster_UI Module"><path d="M375.5,204.5969 L453.5,204.5969 A3.75,3.75 0 0 1 456,207.0969 L463,226.8938 L544.5,226.8938 A2.5,2.5 0 0 1 547,229.3938 L547,475.6869 A2.5,2.5 0 0 1 544.5,478.1869 L375.5,478.1869 A2.5,2.5 0 0 1 373,475.6869 L373,207.0969 A2.5,2.5 0 0 1 375.5,204.5969 " fill="none" style="stroke:#000000;stroke-width:1.5;"/><line style="stroke:#000000;stroke-width:1.5;" x1="373" x2="463" y1="226.8938" y2="226.8938"/><text fill="#000000" font-family="sans-serif" font-size="14" font-weight="bold" lengthAdjust="spacing" textLength="77" x="377" y="219.592">UI Module</text></g><!--entity main_loop--><g id="elem_main_loop"><rect fill="#F1F1F1" height="46.2969" rx="2.5" ry="2.5" style="stroke:#181818;stroke-width:0.5;" width="110" x="198" y="78.2969"/><rect fill="#F1F1F1" height="10" style="stroke:#181818;stroke-width:0.5;" width="15" x="288" y="83.2969"/><rect fill="#F1F1F1" height="2" style="stroke:#181818;stroke-width:0.5;" width="4" x="286" y="85.2969"/><rect fill="#F1F1F1" height="2" style="stroke:#181818;stroke-width:0.5;" width="4" x="286" y="89.2969"/><text fill="#000000" font-family="sans-serif" font-size="14" lengthAdjust="spacing" textLength="70" x="213" y="111.292">main_loop</text></g><!--entity main--><g id="elem_main"><rect fill="#F1F1F1" height="46.2969" rx="2.5" ry="2.5" style="stroke:#181818;stroke-width:0.5;" width="73" x="89.5" y="78.2969"/><rect fill="#F1F1F1" height="10" style="stroke:#181818;stroke-width:0.5;" width="15" x="142.5" y="83.2969"/><rect fill="#F1F1F1" height="2" style="stroke:#181818;stroke-width:0.5;" width="4" x="140.5" y="85.2969"/><rect fill="#F1F1F1" height="2" style="stroke:#181818;stroke-width:0.5;" width="4" x="140.5" y="89.2969"/><text fill="#000000" font-family="sans-serif" font-size="14" lengthAdjust="spacing" textLength="33" x="104.5" y="111.292">main</text></g><!--entity init_particles--><g id="elem_init_particles"><rect fill="#F1F1F1" height="46.2969" rx="2.5" ry="2.5" style="stroke:#181818;stroke-width:0.5;" width="125" x="21.5" y="239.5969"/><rect fill="#F1F1F1" height="10" style="stroke:#181818;stroke-width:0.5;" width="15" x="126.5" y="244.5969"/><rect fill="#F1F1F1" height="2" style="stroke:#181818;stroke-width:0.5;" width="4" x="124.5" y="246.5969"/><rect fill="#F1F1F1" height="2" style="stroke:#181818;stroke-width:0.5;" width="4" x="124.5" y="250.5969"/><text fill="#000000" font-family="sans-serif" font-size="14" lengthAdjust="spacing" textLength="85" x="36.5" y="272.592">init_particles</text></g><!--entity random_wiggle--><g id="elem_random_wiggle"><rect fill="#F1F1F1" height="46.2969" rx="2.5" ry="2.5" style="stroke:#181818;stroke-width:0.5;" width="144" x="181" y="239.5969"/><rect fill="#F1F1F1" height="10" style="stroke:#181818;stroke-width:0.5;" width="15" x="305" y="244.5969"/><rect fill="#F1F1F1" height="2" style="stroke:#181818;stroke-width:0.5;" width="4" x="303" y="246.5969"/><rect fill="#F1F1F1" height="2" style="stroke:#181818;stroke-width:0.5;" width="4" x="303" y="250.5969"/><text fill="#000000" font-family="sans-serif" font-size="14" lengthAdjust="spacing" textLength="104" x="196" y="272.592">random_wiggle</text></g><!--entity write_integer--><g id="elem_write_integer"><rect fill="#F1F1F1" height="46.2969" rx="2.5" ry="2.5" style="stroke:#181818;stroke-width:0.5;" width="129" x="22.5" y="415.8969"/><rect fill="#F1F1F1" height="10" style="stroke:#181818;stroke-width:0.5;" width="15" x="131.5" y="420.8969"/><rect fill="#F1F1F1" height="2" style="stroke:#181818;stroke-width:0.5;" width="4" x="129.5" y="422.8969"/><rect fill="#F1F1F1" height="2" style="stroke:#181818;stroke-width:0.5;" width="4" x="129.5" y="426.8969"/><text fill="#000000" font-family="sans-serif" font-size="14" lengthAdjust="spacing" textLength="89" x="37.5" y="448.892">write_integer</text></g><!--entity write_string--><g id="elem_write_string"><rect fill="#F1F1F1" height="46.2969" rx="2.5" ry="2.5" style="stroke:#181818;stroke-width:0.5;" width="119" x="27.5" y="525.1869"/><rect fill="#F1F1F1" height="10" style="stroke:#181818;stroke-width:0.5;" width="15" x="126.5" y="530.1869"/><rect fill="#F1F1F1" height="2" style="stroke:#181818;stroke-width:0.5;" width="4" x="124.5" y="532.1869"/><rect fill="#F1F1F1" height="2" style="stroke:#181818;stroke-width:0.5;" width="4" x="124.5" y="536.1869"/><text fill="#000000" font-family="sans-serif" font-size="14" lengthAdjust="spacing" textLength="79" x="42.5" y="558.182">write_string</text></g><!--entity random_num--><g id="elem_random_num"><rect fill="#F1F1F1" height="46.2969" rx="2.5" ry="2.5" style="stroke:#181818;stroke-width:0.5;" width="131" x="186.5" y="415.8969"/><rect fill="#F1F1F1" height="10" style="stroke:#181818;stroke-width:0.5;" width="15" x="297.5" y="420.8969"/><rect fill="#F1F1F1" height="2" style="stroke:#181818;stroke-width:0.5;" width="4" x="295.5" y="422.8969"/><rect fill="#F1F1F1" height="2" style="stroke:#181818;stroke-width:0.5;" width="4" x="295.5" y="426.8969"/><text fill="#000000" font-family="sans-serif" font-size="14" lengthAdjust="spacing" textLength="91" x="201.5" y="448.892">random_num</text></g><!--entity new_line--><g id="elem_new_line"><rect fill="#F1F1F1" height="46.2969" rx="2.5" ry="2.5" style="stroke:#181818;stroke-width:0.5;" width="100" x="202" y="525.1869"/><rect fill="#F1F1F1" height="10" style="stroke:#181818;stroke-width:0.5;" width="15" x="282" y="530.1869"/><rect fill="#F1F1F1" height="2" style="stroke:#181818;stroke-width:0.5;" width="4" x="280" y="532.1869"/><rect fill="#F1F1F1" height="2" style="stroke:#181818;stroke-width:0.5;" width="4" x="280" y="536.1869"/><text fill="#000000" font-family="sans-serif" font-size="14" lengthAdjust="spacing" textLength="60" x="217" y="558.182">new_line</text></g><!--entity refresh_display--><g id="elem_refresh_display"><rect fill="#F1F1F1" height="46.2969" rx="2.5" ry="2.5" style="stroke:#181818;stroke-width:0.5;" width="143" x="388.5" y="239.5969"/><rect fill="#F1F1F1" height="10" style="stroke:#181818;stroke-width:0.5;" width="15" x="511.5" y="244.5969"/><rect fill="#F1F1F1" height="2" style="stroke:#181818;stroke-width:0.5;" width="4" x="509.5" y="246.5969"/><rect fill="#F1F1F1" height="2" style="stroke:#181818;stroke-width:0.5;" width="4" x="509.5" y="250.5969"/><text fill="#000000" font-family="sans-serif" font-size="14" lengthAdjust="spacing" textLength="103" x="403.5" y="272.592">refresh_display</text></g><!--entity draw_particle--><g id="elem_draw_particle"><rect fill="#F1F1F1" height="46.2969" rx="2.5" ry="2.5" style="stroke:#181818;stroke-width:0.5;" width="130" x="392" y="415.8969"/><rect fill="#F1F1F1" height="10" style="stroke:#181818;stroke-width:0.5;" width="15" x="502" y="420.8969"/><rect fill="#F1F1F1" height="2" style="stroke:#181818;stroke-width:0.5;" width="4" x="500" y="422.8969"/><rect fill="#F1F1F1" height="2" style="stroke:#181818;stroke-width:0.5;" width="4" x="500" y="426.8969"/><text fill="#000000" font-family="sans-serif" font-size="14" lengthAdjust="spacing" textLength="90" x="407" y="448.892">draw_particle</text></g><!--link main to init_particles--><g id="link_main_init_particles"><path d="M120.07,124.9369 C112.09,155.2069 99.4993,202.965 91.4993,233.315 " fill="none" id="main-to-init_particles" style="stroke:#181818;stroke-width:1.0;"/><polygon fill="#181818" points="89.97,239.1169,96.1319,231.4337,91.2444,234.282,88.3961,229.3946,89.97,239.1169" style="stroke:#181818;stroke-width:1.0;"/><text fill="#000000" font-family="sans-serif" font-size="13" lengthAdjust="spacing" textLength="69" x="117" y="169.6638">initialize all</text><text fill="#000000" font-family="sans-serif" font-size="13" lengthAdjust="spacing" textLength="54" x="124.5" y="184.7966">particles</text></g><!--link main_loop to random_wiggle--><g id="link_main_loop_random_wiggle"><path d="M253,124.9369 C253,155.2069 253,202.7669 253,233.1169 " fill="none" id="main_loop-to-random_wiggle" style="stroke:#181818;stroke-width:1.0;"/><polygon fill="#181818" points="253,239.1169,257,230.1169,253,234.1169,249,230.1169,253,239.1169" style="stroke:#181818;stroke-width:1.0;"/><text fill="#000000" font-family="sans-serif" font-size="13" lengthAdjust="spacing" textLength="63" x="258" y="169.6638">update all</text><text fill="#000000" font-family="sans-serif" font-size="13" lengthAdjust="spacing" textLength="54" x="262.5" y="184.7966">particles</text></g><!--link main_loop to refresh_display--><g id="link_main_loop_refresh_display"><path d="M285.94,124.8869 C299.71,134.4569 315.78,145.8669 330,156.5969 C366.61,184.2269 402.9407,213.9658 428.9207,235.6158 " fill="none" id="main_loop-to-refresh_display" style="stroke:#181818;stroke-width:1.0;"/><polygon fill="#181818" points="433.53,239.4569,429.1767,230.6223,429.6889,236.256,424.0553,236.7681,433.53,239.4569" style="stroke:#181818;stroke-width:1.0;"/><text fill="#000000" font-family="sans-serif" font-size="13" lengthAdjust="spacing" textLength="93" x="370" y="169.6638">update display</text><text fill="#000000" font-family="sans-serif" font-size="13" lengthAdjust="spacing" textLength="87" x="375" y="184.7966">once per loop</text></g><!--link init_particles to random_num--><g id="link_init_particles_random_num"><path d="M99.07,286.2369 C113.87,307.5669 137.7,339.9669 162,364.8969 C180.13,383.4969 198.0601,398.2903 216.1301,412.0003 " fill="none" id="init_particles-to-random_num" style="stroke:#181818;stroke-width:1.0;"/><polygon fill="#181818" points="220.91,415.6269,216.1578,407.0003,216.9267,412.6047,211.3224,413.3736,220.91,415.6269" style="stroke:#181818;stroke-width:1.0;"/><text fill="#000000" font-family="sans-serif" font-size="13" lengthAdjust="spacing" textLength="81" x="163" y="345.9638">set positions</text></g><!--link random_wiggle to random_num--><g id="link_random_wiggle_random_num"><path d="M252.87,286.1769 C252.68,319.5469 252.354,375.937 252.164,409.427 " fill="none" id="random_wiggle-to-random_num" style="stroke:#181818;stroke-width:1.0;"/><polygon fill="#181818" points="252.13,415.4269,256.181,406.4497,252.1584,410.427,248.1811,406.4043,252.13,415.4269" style="stroke:#181818;stroke-width:1.0;"/><text fill="#000000" font-family="sans-serif" font-size="13" lengthAdjust="spacing" textLength="106" x="258" y="345.9638">update positions</text></g><!--link refresh_display to draw_particle--><g id="link_refresh_display_draw_particle"><path d="M459.61,286.1769 C459.04,319.5469 458.0739,375.9378 457.4939,409.4278 " fill="none" id="refresh_display-to-draw_particle" style="stroke:#181818;stroke-width:1.0;"/><polygon fill="#181818" points="457.39,415.4269,461.5452,406.4975,457.4766,410.4276,453.5464,406.359,457.39,415.4269" style="stroke:#181818;stroke-width:1.0;"/><text fill="#000000" font-family="sans-serif" font-size="13" lengthAdjust="spacing" textLength="65" x="463.5" y="330.9638">draw each</text><text fill="#000000" font-family="sans-serif" font-size="13" lengthAdjust="spacing" textLength="67" x="464.5" y="346.0966">particle on</text><text fill="#000000" font-family="sans-serif" font-size="13" lengthAdjust="spacing" textLength="68" x="464" y="361.2294">the screen</text></g><!--link write_integer to write_string--><!--link random_num to new_line--><!--SRC=[XLB1IiKm4BpdAvPUFFK7F0YYXoVuG11FjPJGhdsBwQPiKehA-tUJqbUJAdWe99ETcTtfUl86eRX_l8KdiRte0PwzJAsV10kblEtHdr3WIm6CkdtNVQW-Qc8uscuoM2ml0DKGiCPOEzO_ztWyXo_bFcdnr0RF7P-OV3EkZsuL4SsT7PgP-jxWNse7D2EAsua5vYpaiI7ssAFKEUgy4FSRk9hmD6mGuzmOujNohDHc-FAGULM2RuBkr7JaHgC_8g7gHC_RA7MaNy4IsPrbnjQJPQTYFb2MDv0F3jTGB11fGvy8sfXNXksvK5lE2paBQE5EOwVz_xoyxSXSYIiIo9PRX90kH5OHXzZ-NJh8hl-agv1e57ReORIEbl92vIt_BhzCa522TSWzDTtt7sMosADI101rUqgI25E5MrXfSAqWyY9-sQBK8LiWAAi3THroNKAwGoffFIcvhCyt]--></g></svg>