<?xml version="1.0" encoding="us-ascii" standalone="no"?><svg xmlns="http://www.w3.org/2000/svg" xmlns:xlink="http://www.w3.org/1999/xlink" contentStyleType="text/css" height="439px" preserveAspectRatio="none" style="width:564px;height:439px;background:#FFFFFF;" version="1.1" viewBox="0 0 564 439" width="564px" zoomAndPan="magnify"><defs/><g><text fill="#000000" font-family="sans-serif" font-size="14" font-weight="bold" lengthAdjust="spacing" textLength="183" x="183.5" y="22.9951">DLA Program Structure</text><!--cluster Main Module--><g id="cluster_Main Module"><path d="M22.5,43.2969 L121.5,43.2969 A3.75,3.75 0 0 1 124,45.7969 L131,65.5938 L319.5,65.5938 A2.5,2.5 0 0 1 322,68.0938 L322,138.0969 A2.5,2.5 0 0 1 319.5,140.5969 L22.5,140.5969 A2.5,2.5 0 0 1 20,138.0969 L20,45.7969 A2.5,2.5 0 0 1 22.5,43.2969 " fill="none" style="stroke:#000000;stroke-width:1.5;"/><line style="stroke:#000000;stroke-width:1.5;" x1="20" x2="131" y1="65.5938" y2="65.5938"/><text fill="#000000" font-family="sans-serif" font-size="14" font-weight="bold" lengthAdjust="spacing" textLength="98" x="24" y="58.292">Main Module</text></g><!--cluster Particle Module--><g id="cluster_Particle Module"><path d="M8.5,204.5969 L130.5,204.5969 A3.75,3.75 0 0 1 133,207.0969 L140,226.8937 L348.5,226.8937 A2.5,2.5 0 0 1 351,229.3937 L351,299.3869 A2.5,2.5 0 0 1 348.5,301.8869 L8.5,301.8869 A2.5,2.5 0 0 1 6,299.3869 L6,207.0969 A2.5,2.5 0 0 1 8.5,204.5969 " fill="none" style="stroke:#000000;stroke-width:1.5;"/><line style="stroke:#000000;stroke-width:1.5;" x1="6" x2="140" y1="226.8937" y2="226.8937"/><text fill="#000000" font-family="sans-serif" font-size="14" font-weight="bold" lengthAdjust="spacing" textLength="121" x="10" y="219.592">Particle Module</text></g><!--cluster Helpers Module--><g id="cluster_Helpers Module"><path d="M97.5,334.8869 L221.5,334.8869 A3.75,3.75 0 0 1 224,337.3869 L231,357.1838 L254.5,357.1838 A2.5,2.5 0 0 1 257,359.6838 L257,429.6869 A2.5,2.5 0 0 1 254.5,432.1869 L97.5,432.1869 A2.5,2.5 0 0 1 95,429.6869 L95,337.3869 A2.5,2.5 0 0 1 97.5,334.8869 " fill="none" style="stroke:#000000;stroke-width:1.5;"/><line style="stroke:#000000;stroke-width:1.5;" x1="95" x2="231" y1="357.1838" y2="357.1838"/><text fill="#000000" font-family="sans-serif" font-size="14" font-weight="bold" lengthAdjust="spacing" textLength="123" x="99" y="349.882">Helpers Module</text></g><!--cluster UI Module--><g id="cluster_UI Module"><path d="M385.5,204.5969 L463.5,204.5969 A3.75,3.75 0 0 1 466,207.0969 L473,226.8937 L554.5,226.8937 A2.5,2.5 0 0 1 557,229.3937 L557,429.6869 A2.5,2.5 0 0 1 554.5,432.1869 L385.5,432.1869 A2.5,2.5 0 0 1 383,429.6869 L383,207.0969 A2.5,2.5 0 0 1 385.5,204.5969 " fill="none" style="stroke:#000000;stroke-width:1.5;"/><line style="stroke:#000000;stroke-width:1.5;" x1="383" x2="473" y1="226.8937" y2="226.8937"/><text fill="#000000" font-family="sans-serif" font-size="14" font-weight="bold" lengthAdjust="spacing" textLength="77" x="387" y="219.592">UI Module</text></g><!--entity init_particles--><g id="elem_init_particles"><rect fill="#F1F1F1" height="46.2969" rx="2.5" ry="2.5" style="stroke:#181818;stroke-width:0.5;" width="125" x="35.5" y="78.2969"/><rect fill="#F1F1F1" height="10" style="stroke:#181818;stroke-width:0.5;" width="15" x="140.5" y="83.2969"/><rect fill="#F1F1F1" height="2" style="stroke:#181818;stroke-width:0.5;" width="4" x="138.5" y="85.2969"/><rect fill="#F1F1F1" height="2" style="stroke:#181818;stroke-width:0.5;" width="4" x="138.5" y="89.2969"/><text fill="#000000" font-family="sans-serif" font-size="14" lengthAdjust="spacing" textLength="85" x="50.5" y="111.292">init_particles</text></g><!--entity main_loop--><g id="elem_main_loop"><rect fill="#F1F1F1" height="46.2969" rx="2.5" ry="2.5" style="stroke:#181818;stroke-width:0.5;" width="110" x="196" y="78.2969"/><rect fill="#F1F1F1" height="10" style="stroke:#181818;stroke-width:0.5;" width="15" x="286" y="83.2969"/><rect fill="#F1F1F1" height="2" style="stroke:#181818;stroke-width:0.5;" width="4" x="284" y="85.2969"/><rect fill="#F1F1F1" height="2" style="stroke:#181818;stroke-width:0.5;" width="4" x="284" y="89.2969"/><text fill="#000000" font-family="sans-serif" font-size="14" lengthAdjust="spacing" textLength="70" x="211" y="111.292">main_loop</text></g><!--entity place_particle--><g id="elem_place_particle"><rect fill="#F1F1F1" height="46.2969" rx="2.5" ry="2.5" style="stroke:#181818;stroke-width:0.5;" width="134" x="22" y="239.5969"/><rect fill="#F1F1F1" height="10" style="stroke:#181818;stroke-width:0.5;" width="15" x="136" y="244.5969"/><rect fill="#F1F1F1" height="2" style="stroke:#181818;stroke-width:0.5;" width="4" x="134" y="246.5969"/><rect fill="#F1F1F1" height="2" style="stroke:#181818;stroke-width:0.5;" width="4" x="134" y="250.5969"/><text fill="#000000" font-family="sans-serif" font-size="14" lengthAdjust="spacing" textLength="94" x="37" y="272.592">place_particle</text></g><!--entity random_wiggle--><g id="elem_random_wiggle"><rect fill="#F1F1F1" height="46.2969" rx="2.5" ry="2.5" style="stroke:#181818;stroke-width:0.5;" width="144" x="191" y="239.5969"/><rect fill="#F1F1F1" height="10" style="stroke:#181818;stroke-width:0.5;" width="15" x="315" y="244.5969"/><rect fill="#F1F1F1" height="2" style="stroke:#181818;stroke-width:0.5;" width="4" x="313" y="246.5969"/><rect fill="#F1F1F1" height="2" style="stroke:#181818;stroke-width:0.5;" width="4" x="313" y="250.5969"/><text fill="#000000" font-family="sans-serif" font-size="14" lengthAdjust="spacing" textLength="104" x="206" y="272.592">random_wiggle</text></g><!--entity random_num--><g id="elem_random_num"><rect fill="#F1F1F1" height="46.2969" rx="2.5" ry="2.5" style="stroke:#181818;stroke-width:0.5;" width="131" x="110.5" y="369.8869"/><rect fill="#F1F1F1" height="10" style="stroke:#181818;stroke-width:0.5;" width="15" x="221.5" y="374.8869"/><rect fill="#F1F1F1" height="2" style="stroke:#181818;stroke-width:0.5;" width="4" x="219.5" y="376.8869"/><rect fill="#F1F1F1" height="2" style="stroke:#181818;stroke-width:0.5;" width="4" x="219.5" y="380.8869"/><text fill="#000000" font-family="sans-serif" font-size="14" lengthAdjust="spacing" textLength="91" x="125.5" y="402.882">random_num</text></g><!--entity refresh_display--><g id="elem_refresh_display"><rect fill="#F1F1F1" height="46.2969" rx="2.5" ry="2.5" style="stroke:#181818;stroke-width:0.5;" width="143" x="398.5" y="239.5969"/><rect fill="#F1F1F1" height="10" style="stroke:#181818;stroke-width:0.5;" width="15" x="521.5" y="244.5969"/><rect fill="#F1F1F1" height="2" style="stroke:#181818;stroke-width:0.5;" width="4" x="519.5" y="246.5969"/><rect fill="#F1F1F1" height="2" style="stroke:#181818;stroke-width:0.5;" width="4" x="519.5" y="250.5969"/><text fill="#000000" font-family="sans-serif" font-size="14" lengthAdjust="spacing" textLength="103" x="413.5" y="272.592">refresh_display</text></g><!--entity show_particle--><g id="elem_show_particle"><rect fill="#F1F1F1" height="46.2969" rx="2.5" ry="2.5" style="stroke:#181818;stroke-width:0.5;" width="134" x="403" y="369.8869"/><rect fill="#F1F1F1" height="10" style="stroke:#181818;stroke-width:0.5;" width="15" x="517" y="374.8869"/><rect fill="#F1F1F1" height="2" style="stroke:#181818;stroke-width:0.5;" width="4" x="515" y="376.8869"/><rect fill="#F1F1F1" height="2" style="stroke:#181818;stroke-width:0.5;" width="4" x="515" y="380.8869"/><text fill="#000000" font-family="sans-serif" font-size="14" lengthAdjust="spacing" textLength="94" x="418" y="402.882">show_particle</text></g><!--link init_particles to place_particle--><g id="link_init_particles_place_particle"><path d="M96.73,124.9269 C95.02,155.2069 92.3275,202.7764 90.6175,233.1264 " fill="none" id="init_particles-to-place_particle" style="stroke:#181818;stroke-width:1.0;"/><polygon fill="#181818" points="90.28,239.1169,94.7799,230.3561,90.5613,234.1248,86.7926,229.9061,90.28,239.1169" style="stroke:#181818;stroke-width:1.0;"/><text fill="#000000" font-family="sans-serif" font-size="13" lengthAdjust="spacing" textLength="51" x="99.5" y="169.6638">initialize</text><text fill="#000000" font-family="sans-serif" font-size="13" lengthAdjust="spacing" textLength="54" x="100" y="184.7966">particles</text></g><!--link place_particle to random_num--><g id="link_place_particle_random_num"><path d="M104.35,286.3869 C120.26,309.8369 141.5822,341.2912 157.4322,364.6612 " fill="none" id="place_particle-to-random_num" style="stroke:#181818;stroke-width:1.0;"/><polygon fill="#181818" points="160.8,369.6269,159.0587,359.9332,157.9935,365.4888,152.4378,364.4236,160.8,369.6269" style="stroke:#181818;stroke-width:1.0;"/></g><!--link main_loop to random_wiggle--><g id="link_main_loop_random_wiggle"><path d="M252.69,124.9269 C254.97,155.2069 258.5586,202.7839 260.8486,233.1339 " fill="none" id="main_loop-to-random_wiggle" style="stroke:#181818;stroke-width:1.0;"/><polygon fill="#181818" points="261.3,239.1169,264.6115,229.8414,260.9238,234.131,256.6342,230.4433,261.3,239.1169" style="stroke:#181818;stroke-width:1.0;"/><text fill="#000000" font-family="sans-serif" font-size="13" lengthAdjust="spacing" textLength="106" x="259" y="169.6638">update positions</text><text fill="#000000" font-family="sans-serif" font-size="13" lengthAdjust="spacing" textLength="61" x="283.5" y="184.7966">and state</text></g><!--link random_wiggle to random_num--><g id="link_random_wiggle_random_num"><path d="M247.65,286.3869 C231.74,309.8369 210.4178,341.2912 194.5678,364.6612 " fill="none" id="random_wiggle-to-random_num" style="stroke:#181818;stroke-width:1.0;"/><polygon fill="#181818" points="191.2,369.6269,199.5622,364.4236,194.0065,365.4888,192.9413,359.9332,191.2,369.6269" style="stroke:#181818;stroke-width:1.0;"/></g><!--link main_loop to refresh_display--><g id="link_main_loop_refresh_display"><path d="M306.27,121.0769 C328.44,129.9569 353.53,141.8969 374,156.5969 C406.73,180.0969 433.0934,211.5018 450.5434,234.7018 " fill="none" id="main_loop-to-refresh_display" style="stroke:#181818;stroke-width:1.0;"/><polygon fill="#181818" points="454.15,239.4969,451.9368,229.8999,451.1445,235.501,445.5434,234.7087,454.15,239.4969" style="stroke:#181818;stroke-width:1.0;"/><text fill="#000000" font-family="sans-serif" font-size="13" lengthAdjust="spacing" textLength="93" x="410" y="169.6638">update display</text><text fill="#000000" font-family="sans-serif" font-size="13" lengthAdjust="spacing" textLength="87" x="415" y="184.7966">once per loop</text></g><!--link refresh_display to show_particle--><g id="link_refresh_display_show_particle"><path d="M470,286.3869 C470,309.8369 470,340.2569 470,363.6269 " fill="none" id="refresh_display-to-show_particle" style="stroke:#181818;stroke-width:1.0;"/><polygon fill="#181818" points="470,369.6269,474,360.6269,470,364.6269,466,360.6269,470,369.6269" style="stroke:#181818;stroke-width:1.0;"/></g><!--SRC=[XPAzQiGm48HxFSNYvgfxWHI1G8e4Sd0GKZc74V965f6rGZySbt3ldbNi-2mtALHuDFDvTb4ooI8qZoyFS0oaWnpXDOMiKWxO2958OnemmBS0y59zIitkWpGE3jHdYytl3K1hd4cTbo4PPJ6U9d5aOsU9VFc-ybbJZhDvG-AOjrBX0ZlzoK6wdiRkRBIUr2tn2Qt743V0NQl8HRB8JVHSR4QvF4wSgn0BvUsv0hG1FmB6eUjDv6AN4cZZGETLGOxNyyD-Vm_r6707nMEaDL_uxc3nYeslH6_zX5YMkBwPbi3Cx7kP43n5PlESJ6O7nCIggCt_WEinR-XPO30vnN_Yrr12OXiea6elFm00]--></g></svg>